HIERARCHY
ROOT Hips
{
	OFFSET 0.000000 83.214638 0.000000
	CHANNELS 6 Xposition Yposition Zposition Xrotation Yrotation Zrotation
	JOINT Pelvis
	{
		OFFSET 0.000000 0.000000 0.000000
		CHANNELS 3 Xrotation Yrotation Zrotation
		JOINT LeftUpLeg
		{
			OFFSET 8.479700 -4.795502 -0.379100
			CHANNELS 3 Xrotation Yrotation Zrotation
			JOINT LeftLeg
			{
				OFFSET 0.024144 -32.555107 0.112900
				CHANNELS 3 Xrotation Yrotation Zrotation
				JOINT LeftFoot
				{
					OFFSET -0.024144 -32.638630 -3.012600
					CHANNELS 3 Xrotation Yrotation Zrotation
					JOINT LeftToeBase
					{
						OFFSET 0.970200 -13.225400 11.864200
						CHANNELS 3 Xrotation Yrotation Zrotation
						End Site
						{
							OFFSET 0.000000 12.319262 0.000000
						}
					}
					JOINT LFootTongue
					{
						OFFSET 1.142400 -1.059800 6.665200
						CHANNELS 3 Xrotation Yrotation Zrotation
						End Site
						{
							OFFSET 0.000000 12.319262 0.000000
						}
					}
				}
				JOINT LeftPantLeg
				{
					OFFSET 0.918482 -16.533964 -2.284700
					CHANNELS 3 Xrotation Yrotation Zrotation
					End Site
					{
						OFFSET 0.350399 24.744368 0.000000
					}
				}
			}
		}
		JOINT RightUpLeg
		{
			OFFSET -8.479700 -4.795502 -0.379100
			CHANNELS 3 Xrotation Yrotation Zrotation
			JOINT RightLeg
			{
				OFFSET -0.023144 -32.555092 0.112900
				CHANNELS 3 Xrotation Yrotation Zrotation
				JOINT RightFoot
				{
					OFFSET 0.023144 -32.638641 -3.012700
					CHANNELS 3 Xrotation Yrotation Zrotation
					JOINT RightToeBase
					{
						OFFSET -0.970200 -13.225400 11.864200
						CHANNELS 3 Xrotation Yrotation Zrotation
						End Site
						{
							OFFSET 0.000000 12.319244 0.000000
						}
					}
					JOINT RFootTongue
					{
						OFFSET -1.142200 -1.059800 6.665200
						CHANNELS 3 Xrotation Yrotation Zrotation
						End Site
						{
							OFFSET 0.000000 12.319243 0.000000
						}
					}
				}
				JOINT RightPantLeg
				{
					OFFSET -0.919482 -16.533978 -2.284800
					CHANNELS 3 Xrotation Yrotation Zrotation
					End Site
					{
						OFFSET -0.350400 24.744419 0.000000
					}
				}
			}
		}
	}
	JOINT Spine
	{
		OFFSET 0.000000 7.722000 1.166200
		CHANNELS 3 Xrotation Yrotation Zrotation
		JOINT Spine1
		{
			OFFSET 0.000000 12.024101 0.248800
			CHANNELS 3 Xrotation Yrotation Zrotation
			JOINT Spine2
			{
				OFFSET 0.000000 11.502998 -0.491200
				CHANNELS 3 Xrotation Yrotation Zrotation
				JOINT Neck
				{
					OFFSET 0.000000 18.430702 -3.123100
					CHANNELS 3 Xrotation Yrotation Zrotation
					JOINT Head
					{
						OFFSET 0.000000 9.051102 1.034000
						CHANNELS 3 Xrotation Yrotation Zrotation
						JOINT HairB
						{
							OFFSET 0.208400 24.786102 24.822300
							CHANNELS 3 Xrotation Yrotation Zrotation
							End Site
							{
								OFFSET 0.000000 32.263779 0.000000
							}
						}
						JOINT HairA
						{
							OFFSET -7.081100 24.428299 23.196600
							CHANNELS 3 Xrotation Yrotation Zrotation
							End Site
							{
								OFFSET 0.000000 32.263779 0.000000
							}
						}
						JOINT Hat
						{
							OFFSET 16.728800 15.048294 -15.439601
							CHANNELS 3 Xrotation Yrotation Zrotation
							End Site
							{
								OFFSET 0.000000 32.263779 0.000000
							}
						}
					}
				}
				JOINT LeftShoulder
				{
					OFFSET 6.197800 13.665199 -4.064700
					CHANNELS 3 Xrotation Yrotation Zrotation
					JOINT LeftArm
					{
						OFFSET 7.778100 -0.187103 -1.709300
						CHANNELS 3 Xrotation Yrotation Zrotation
						JOINT LeftForeArm
						{
							OFFSET 22.049376 0.000000 0.000000
							CHANNELS 3 Xrotation Yrotation Zrotation
							JOINT LeftHand
							{
								OFFSET 23.009392 0.000000 0.000000
								CHANNELS 3 Xrotation Yrotation Zrotation
								JOINT LeftHandThumb1
								{
									OFFSET 3.507191 -2.063065 3.133727
									CHANNELS 3 Xrotation Yrotation Zrotation
									JOINT LeftHandThumb2
									{
										OFFSET 3.101337 -1.790558 1.790558
										CHANNELS 3 Xrotation Yrotation Zrotation
										JOINT LeftHandThumb3
										{
											OFFSET 3.058640 -1.765907 1.765906
											CHANNELS 3 Xrotation Yrotation Zrotation
											End Site
											{
												OFFSET -0.415260 3.926476 -0.049563
											}
										}
									}
								}
								JOINT LeftHandIndex1
								{
									OFFSET 11.334419 -0.901459 3.706815
									CHANNELS 3 Xrotation Yrotation Zrotation
									JOINT LeftHandIndex2
									{
										OFFSET 3.283112 0.000000 0.000000
										CHANNELS 3 Xrotation Yrotation Zrotation
										JOINT LeftHandIndex3
										{
											OFFSET 3.323853 0.000000 0.000000
											CHANNELS 3 Xrotation Yrotation Zrotation
											End Site
											{
												OFFSET -1.135597 3.097809 0.402452
											}
										}
									}
								}
								JOINT LeftHandMiddle1
								{
									OFFSET 11.335861 0.000000 0.000000
									CHANNELS 3 Xrotation Yrotation Zrotation
									JOINT LeftHandMiddle2
									{
										OFFSET 3.410492 0.000000 0.000000
										CHANNELS 3 Xrotation Yrotation Zrotation
										JOINT LeftHandMiddle3
										{
											OFFSET 3.312172 0.000000 0.000000
											CHANNELS 3 Xrotation Yrotation Zrotation
											End Site
											{
												OFFSET -1.150200 3.080154 0.400270
											}
										}
									}
								}
								JOINT LeftHandRing1
								{
									OFFSET 11.514786 -0.013176 -3.003090
									CHANNELS 3 Xrotation Yrotation Zrotation
									JOINT LeftHandRing2
									{
										OFFSET 3.053307 0.000000 0.000000
										CHANNELS 3 Xrotation Yrotation Zrotation
										JOINT LeftHandRing3
										{
											OFFSET 3.295807 0.000000 0.000000
											CHANNELS 3 Xrotation Yrotation Zrotation
											End Site
											{
												OFFSET -1.281006 3.013344 0.375733
											}
										}
									}
								}
								JOINT LeftHandPinky1
								{
									OFFSET 10.518692 -0.960396 -5.730441
									CHANNELS 3 Xrotation Yrotation Zrotation
									JOINT LeftHandPinky2
									{
										OFFSET 2.861649 0.000000 0.000000
										CHANNELS 3 Xrotation Yrotation Zrotation
										JOINT LeftHandPinky3
										{
											OFFSET 2.863380 0.000000 0.000000
											CHANNELS 3 Xrotation Yrotation Zrotation
											End Site
											{
												OFFSET -0.843597 2.711159 0.369971
											}
										}
									}
								}
							}
							JOINT LSleeve
							{
								OFFSET 6.676277 -0.344902 -1.011730
								CHANNELS 3 Xrotation Yrotation Zrotation
								End Site
								{
									OFFSET 0.000000 14.885353 0.000000
								}
							}
						}
					}
				}
				JOINT RightShoulder
				{
					OFFSET -6.197800 13.665199 -4.064700
					CHANNELS 3 Xrotation Yrotation Zrotation
					JOINT RightArm
					{
						OFFSET -7.778100 -0.187103 -1.709300
						CHANNELS 3 Xrotation Yrotation Zrotation
						JOINT RightForeArm
						{
							OFFSET -22.049376 0.000000 0.000000
							CHANNELS 3 Xrotation Yrotation Zrotation
							JOINT RightHand
							{
								OFFSET -23.009392 0.000000 0.000000
								CHANNELS 3 Xrotation Yrotation Zrotation
								JOINT RightHandThumb1
								{
									OFFSET -3.507191 -2.063065 3.133727
									CHANNELS 3 Xrotation Yrotation Zrotation
									JOINT RightHandThumb2
									{
										OFFSET -3.101337 -1.790558 1.790558
										CHANNELS 3 Xrotation Yrotation Zrotation
										JOINT RightHandThumb3
										{
											OFFSET -3.058640 -1.765907 1.765906
											CHANNELS 3 Xrotation Yrotation Zrotation
											End Site
											{
												OFFSET 0.415260 3.926476 -0.049563
											}
										}
									}
								}
								JOINT RightHandIndex1
								{
									OFFSET -11.334419 -0.901459 3.706815
									CHANNELS 3 Xrotation Yrotation Zrotation
									JOINT RightHandIndex2
									{
										OFFSET -3.283112 0.000000 0.000000
										CHANNELS 3 Xrotation Yrotation Zrotation
										JOINT RightHandIndex3
										{
											OFFSET -3.323853 0.000000 0.000000
											CHANNELS 3 Xrotation Yrotation Zrotation
											End Site
											{
												OFFSET 1.135597 3.097809 0.402452
											}
										}
									}
								}
								JOINT RightHandMiddle1
								{
									OFFSET -11.335861 0.000000 0.000000
									CHANNELS 3 Xrotation Yrotation Zrotation
									JOINT RightHandMiddle2
									{
										OFFSET -3.410492 0.000000 0.000000
										CHANNELS 3 Xrotation Yrotation Zrotation
										JOINT RightHandMiddle3
										{
											OFFSET -3.312172 0.000000 0.000000
											CHANNELS 3 Xrotation Yrotation Zrotation
											End Site
											{
												OFFSET 1.150200 3.080154 0.400270
											}
										}
									}
								}
								JOINT RightHandRing1
								{
									OFFSET -11.514786 -0.013176 -3.003090
									CHANNELS 3 Xrotation Yrotation Zrotation
									JOINT RightHandRing2
									{
										OFFSET -3.053307 0.000000 0.000000
										CHANNELS 3 Xrotation Yrotation Zrotation
										JOINT RightHandRing3
										{
											OFFSET -3.295807 0.000000 0.000000
											CHANNELS 3 Xrotation Yrotation Zrotation
											End Site
											{
												OFFSET 1.281006 3.013344 0.375733
											}
										}
									}
								}
								JOINT RightHandPinky1
								{
									OFFSET -10.518692 -0.960396 -5.730441
									CHANNELS 3 Xrotation Yrotation Zrotation
									JOINT RightHandPinky2
									{
										OFFSET -2.861649 0.000000 0.000000
										CHANNELS 3 Xrotation Yrotation Zrotation
										JOINT RightHandPinky3
										{
											OFFSET -2.863380 0.000000 0.000000
											CHANNELS 3 Xrotation Yrotation Zrotation
											End Site
											{
												OFFSET 0.843597 2.711159 0.369971
											}
										}
									}
								}
							}
							JOINT RSleeve
							{
								OFFSET -6.676277 -0.344902 -1.011730
								CHANNELS 3 Xrotation Yrotation Zrotation
								End Site
								{
									OFFSET 0.000000 14.885353 0.000000
								}
							}
						}
					}
				}
				JOINT Backpack
				{
					OFFSET 0.000000 -2.471497 36.677502
					CHANNELS 3 Xrotation Yrotation Zrotation
					End Site
					{
						OFFSET 0.000000 20.427315 0.000000
					}
				}
				JOINT Hood
				{
					OFFSET 0.000000 18.754097 -10.431000
					CHANNELS 3 Xrotation Yrotation Zrotation
					JOINT Hood1
					{
						OFFSET 0.000000 -5.011002 -7.685901
						CHANNELS 3 Xrotation Yrotation Zrotation
						End Site
						{
							OFFSET 0.000000 9.175140 0.000000
						}
					}
				}
				JOINT LHoodieString
				{
					OFFSET 5.250500 16.397697 3.089900
					CHANNELS 3 Xrotation Yrotation Zrotation
					JOINT LHoodieString1
					{
						OFFSET 0.257700 -6.364304 3.694600
						CHANNELS 3 Xrotation Yrotation Zrotation
						JOINT LHoodieString2
						{
							OFFSET 0.000000 -9.643799 2.679100
							CHANNELS 3 Xrotation Yrotation Zrotation
							End Site
							{
								OFFSET 0.000000 10.009018 0.000000
							}
						}
					}
				}
				JOINT RHoodieString
				{
					OFFSET -5.250500 16.397697 3.089900
					CHANNELS 3 Xrotation Yrotation Zrotation
					JOINT RHoodieString1
					{
						OFFSET -0.257700 -6.364304 3.694600
						CHANNELS 3 Xrotation Yrotation Zrotation
						JOINT RHoodieString2
						{
							OFFSET 0.000000 -9.643799 2.679100
							CHANNELS 3 Xrotation Yrotation Zrotation
							End Site
							{
								OFFSET 0.000000 10.009018 0.000000
							}
						}
					}
				}
			}
			JOINT LBackpack_Strap
			{
				OFFSET 15.223200 -7.719803 -6.610900
				CHANNELS 3 Xrotation Yrotation Zrotation
				End Site
				{
					OFFSET 0.000000 16.040596 0.000000
				}
			}
			JOINT RBackpack_Strap
			{
				OFFSET -15.223000 -7.719803 -6.610900
				CHANNELS 3 Xrotation Yrotation Zrotation
				End Site
				{
					OFFSET 0.000000 16.040596 0.000000
				}
			}
		}
	}
	JOINT BoyFacialAnim_Joint
	{
		OFFSET 1.000000 -82.208099 -1.550900
		CHANNELS 3 Xrotation Yrotation Zrotation
		End Site
		{
			OFFSET 0.000000 30.012791 0.000000
		}
	}
}
MOTION
Frames: 4
Frame Time: 0.033333
16.723927 84.261261 -5.413456 3.347327 -6.331345 -3.422762 -0.000000 0.000000 0.000000 -19.305311 2.709958 8.358044 23.888334 -4.520187 -1.940830 3.421401 -0.016833 -6.344537 -0.000000 0.000000 -0.000000 -0.000000 0.000000 -0.000000 0.000000 -0.000000 -0.000000 -9.388107 8.308451 1.856349 11.675418 -9.892984 0.770740 1.901939 -14.662024 5.399698 0.000000 -0.000002 0.000000 0.000000 -0.000002 0.000000 -0.000000 0.000001 -0.000000 11.440351 -1.210510 8.496927 2.244773 -0.247892 0.712418 2.242810 -0.264210 0.710868 -14.855926 -2.166598 -5.681035 -7.455726 -20.691092 12.265806 -0.000000 -0.000001 -0.000000 -0.000000 -0.000001 -0.000000 -0.000000 -0.000001 -0.000000 2.998297 -12.031373 11.189042 -2.339313 -26.726544 -26.718276 -0.000010 -64.572404 -0.000016 23.333962 -0.675850 9.179065 -1.820728 14.989335 7.863377 4.849779 19.292655 1.571655 0.000003 0.000000 -0.000001 0.091704 1.122348 -9.342561 0.135224 1.360612 -11.350688 0.000004 -0.000002 -0.000004 0.065390 0.948622 -7.886183 0.127744 1.322884 -11.031759 -0.000002 -0.000001 -0.000004 0.072281 0.997062 -8.291766 0.138265 1.375725 -11.478526 0.000000 0.000000 0.000001 0.847534 5.258774 -10.120588 0.161890 -2.548019 -13.096311 0.000001 0.000002 -0.000002 -0.000000 0.000001 0.000001 2.125481 9.935366 -4.163064 -17.299916 37.957554 29.846742 -0.000034 57.553421 0.000040 60.387697 38.489991 7.600841 -2.138678 -14.869482 -8.382464 5.640678 -19.974357 -0.978780 0.000001 -0.000003 0.000001 2.024336 -4.908428 44.804009 0.966032 -3.540731 30.512948 -0.000002 -0.000002 0.000003 1.427800 -4.225878 37.323142 1.107914 -3.770694 32.738155 0.000001 0.000000 -0.000000 1.516524 -4.339445 38.511178 1.202350 -3.913344 34.147425 0.000003 0.000000 0.000000 2.360942 -5.224269 48.614315 1.213461 -3.929626 34.309649 -0.000001 -0.000001 0.000000 0.000001 -0.000001 0.000002 0.000002 0.000001 -0.000000 0.000002 0.000001 -0.000000 0.000002 0.000001 -0.000000 0.000002 0.000001 -0.000000 0.000002 0.000001 -0.000001 -0.000002 -0.000001 -0.000000 0.000002 0.000001 -0.000000 0.000002 0.000001 -0.000001 -0.000002 -0.000001 -0.000000 0.000003 0.000000 0.000000 0.000003 0.000000 0.000000 -0.000000 0.000000 0.000000 
16.633703 83.756340 -5.594981 3.457207 -7.886671 -3.856675 -0.000000 -0.000001 -0.000000 -18.757028 -0.859347 4.444339 24.886163 -3.841584 -3.626404 0.457662 -0.300995 0.816896 -0.000000 0.000001 -0.000000 -0.000000 0.000001 0.000000 0.000001 0.000000 -0.000000 -11.023305 10.054213 2.671131 27.426203 -10.027717 3.528170 -1.730824 -11.142945 2.505225 0.000002 0.000000 0.000000 0.000002 0.000000 0.000000 -0.000002 -0.000001 0.000000 12.620420 0.328696 9.467534 1.636816 -0.044736 -0.192965 1.633702 -0.076628 -0.194311 -14.610186 -2.935221 -7.391177 -4.669776 -27.134325 15.426228 0.000000 -0.000001 -0.000000 0.000000 -0.000001 -0.000000 0.000000 -0.000001 -0.000000 2.457276 -11.061076 4.594661 -10.597663 -33.398187 -28.561606 -0.000002 -62.971653 -0.000000 40.356644 -0.622192 10.280300 -1.820727 14.989311 7.863376 4.849779 19.292655 1.571656 -0.000001 0.000001 -0.000001 0.098599 1.163468 -9.688337 0.139359 1.381062 -11.523612 0.000000 0.000000 -0.000000 0.070123 0.982171 -8.167099 0.132244 1.345746 -11.224924 0.000003 -0.000004 -0.000002 0.077247 1.030565 -8.572683 0.142948 1.398541 -11.671693 0.000001 0.000003 -0.000000 0.879506 5.295286 -10.468306 0.166670 -2.527739 -13.268914 -0.000003 0.000001 0.000002 -0.000001 0.000001 0.000003 2.444603 12.350316 -1.712103 -36.161269 36.053710 44.479715 0.000003 45.003713 -0.000001 63.096721 35.094905 1.980011 -2.138678 -14.869458 -8.382477 5.640675 -19.974357 -0.978782 -0.000001 0.000000 0.000001 1.734654 -4.599459 41.309783 0.861276 -3.356971 28.771557 -0.000002 0.000001 0.000002 1.225787 -3.947583 34.489201 0.983324 -3.569841 30.791753 0.000006 0.000001 0.000003 1.308748 -4.065402 35.676421 1.072816 -3.715625 32.200374 -0.000008 0.000001 0.000001 2.051168 -4.935171 45.116702 1.096678 -3.753179 32.566704 -0.000001 -0.000000 0.000000 0.000000 -0.000000 0.000001 0.000001 -0.000001 0.000000 0.000001 -0.000001 0.000000 0.000001 -0.000001 0.000000 0.000001 -0.000001 0.000000 0.000001 -0.000001 -0.000000 -0.000000 -0.000000 -0.000000 0.000001 -0.000001 0.000000 0.000001 -0.000001 -0.000000 -0.000000 -0.000000 -0.000000 0.000001 -0.000001 -0.000000 0.000001 -0.000001 -0.000000 -0.000000 -0.000001 -0.000000 
16.563459 82.049126 -5.799127 2.065263 -10.369597 -3.355095 -0.000000 -0.000000 0.000000 -18.214678 -3.887810 1.545969 29.375964 3.027602 -5.831331 -5.792848 -0.824458 6.270720 -0.000000 0.000000 0.000000 -0.000000 0.000000 -0.000000 0.000001 0.000001 -0.000000 -12.365978 8.794640 1.791863 48.653975 -10.135972 4.294250 -2.270225 -6.659445 0.200086 0.000000 0.000000 -0.000000 0.000000 0.000000 -0.000000 -0.000000 -0.000000 0.000000 14.566707 2.940885 9.007869 1.257450 0.324490 -1.266828 1.268052 0.266203 -1.270655 -13.559165 -4.108212 -8.637223 -1.664582 -34.548005 18.392149 -0.000000 0.000001 -0.000001 -0.000000 0.000001 -0.000001 -0.000000 0.000001 -0.000001 2.174989 -10.123341 -0.474519 -19.291543 -42.157966 -34.599198 -0.000010 -55.286085 -0.000017 53.569864 -0.741465 11.644532 -1.820731 14.989349 7.863372 4.849777 19.292658 1.571656 -0.000000 -0.000001 0.000001 0.109718 1.226763 -10.221042 0.145854 1.412520 -11.789996 0.000001 -0.000002 -0.000002 0.077738 1.033814 -8.599848 0.139331 1.380939 -11.522536 0.000002 -0.000001 0.000002 0.085234 1.082174 -9.005461 0.150303 1.433681 -11.969318 -0.000001 0.000002 -0.000004 0.929219 5.351110 -11.004017 0.174116 -2.496471 -13.534833 -0.000002 0.000002 0.000002 0.000002 -0.000002 -0.000001 2.808291 15.251391 -0.463156 -52.375482 29.648048 55.285651 -0.000003 29.673330 0.000000 56.060956 27.677426 0.003352 -2.138679 -14.869455 -8.382479 5.640676 -19.974355 -0.978781 -0.000000 0.000001 0.000000 1.182949 -3.884640 33.861950 0.656693 -2.954604 25.056824 0.000001 0.000001 0.000005 0.842339 -3.322337 28.446713 0.740696 -3.127722 26.640110 0.000000 0.000001 0.000002 0.912359 -3.448202 29.632287 0.819342 -3.279596 28.047461 -0.000001 -0.000000 0.000002 1.452845 -4.258434 37.661711 0.865812 -3.365192 28.848947 -0.000000 -0.000000 0.000002 0.000000 -0.000000 0.000000 0.000000 0.000000 -0.000000 0.000000 0.000000 -0.000000 0.000000 0.000000 -0.000000 0.000000 0.000000 -0.000000 0.000000 0.000000 -0.000000 0.000000 -0.000001 -0.000000 0.000000 0.000000 -0.000000 0.000000 0.000000 -0.000000 0.000000 -0.000001 -0.000000 0.000000 -0.000000 -0.000000 0.000000 -0.000000 -0.000000 -0.000000 -0.000000 0.000000 
16.512232 79.619713 -6.093006 -0.326991 -13.438201 -2.119559 0.000000 0.000001 0.000000 -17.646560 -2.961047 -0.122009 36.293358 7.790911 -7.607723 -16.283615 -1.509384 7.447958 0.000000 0.000001 -0.000000 0.000000 0.000001 -0.000000 -0.000000 0.000000 -0.000000 -12.113702 6.407326 -1.590598 69.128051 -10.109284 2.086641 -2.106573 -4.405761 -1.294508 0.000001 -0.000001 -0.000000 0.000001 -0.000001 -0.000000 0.000002 -0.000000 -0.000000 16.565034 6.242171 7.018191 1.602839 0.820580 -2.567620 1.644374 0.715785 -2.569990 -12.345563 -5.828790 -8.568448 0.707616 -42.255887 20.767400 0.000000 0.000003 -0.000000 0.000000 0.000003 -0.000000 0.000000 0.000003 -0.000000 2.152727 -10.247366 -1.740071 -31.720150 -49.310349 -47.255931 0.000007 -44.811010 0.000007 56.098038 -1.584401 11.597576 -1.820732 14.989333 7.863377 4.849776 19.292655 1.571657 0.000001 -0.000000 -0.000000 0.122229 1.294219 -10.789739 0.152951 1.446071 -12.074390 0.000002 -0.000004 -0.000002 0.086289 1.088912 -9.061865 0.147096 1.418449 -11.840237 0.000004 -0.000001 -0.000000 0.094167 1.137203 -9.467485 0.158358 1.471130 -12.287031 -0.000003 0.000004 -0.000003 0.982849 5.410238 -11.576046 0.182240 -2.463139 -13.818682 0.000000 0.000001 0.000002 0.000002 0.000001 -0.000003 3.182861 17.517919 -0.908205 -61.003486 23.977389 58.768689 -0.000014 17.935452 0.000004 36.929228 16.788059 2.114393 -2.138676 -14.869450 -8.382472 5.640676 -19.974357 -0.978781 0.000003 -0.000001 -0.000000 0.643049 -2.925246 24.790778 0.443145 -2.446961 20.527300 -0.000000 0.000000 0.000004 0.467197 -2.510169 21.083443 0.489122 -2.566289 21.578542 0.000001 0.000001 0.000000 0.520428 -2.643972 22.267267 0.554018 -2.724483 22.984493 0.000001 -0.000002 0.000003 0.850240 -3.336815 28.582684 0.619040 -2.872791 24.316052 -0.000000 0.000002 0.000002 0.000002 0.000000 -0.000001 0.000001 0.000000 0.000000 0.000001 0.000000 0.000000 0.000001 0.000000 0.000000 0.000001 0.000000 0.000000 0.000001 0.000000 0.000000 -0.000001 -0.000000 0.000000 0.000001 0.000000 0.000000 0.000001 0.000000 0.000000 -0.000001 -0.000000 0.000000 0.000000 0.000001 -0.000000 0.000000 0.000001 -0.000000 0.000000 0.000001 0.000000 
